<svg width="643" height="516" viewBox="0 0 643 516" fill="none" xmlns="http://www.w3.org/2000/svg">
<path d="M642.711 438.885H0.743164V515.465H642.711V438.885Z" fill="#BADCC8"/>
<path d="M632.244 448.454H0.743164V505.587H632.244V448.454Z" fill="#F5F5F5"/>
<path opacity="0.3" d="M642.711 438.885H517.962V515.465H642.711V438.885Z" fill="black"/>
<path d="M632.229 460.948H630.603H625.818H607.393L539.654 461.072L316.168 461.351L92.6364 461.227L24.8352 461.103H6.42556L24.8352 460.794L92.5745 460.67L316.107 460.546L539.592 460.67L607.331 460.794L625.756 460.871H630.541L632.229 460.948Z" fill="#263238"/>
<path d="M632.229 476.23C632.229 476.23 631.687 476.23 630.603 476.23H625.818H607.393L539.654 476.354L316.168 476.478L92.6364 476.354L24.8352 476.385H6.42556H1.64123C0.5574 476.385 0 476.385 0 476.385H1.64123H6.42556L24.8352 476.076L92.5745 475.936L316.107 475.828L539.592 475.936L607.331 476.076L625.756 476.153H630.541C631.687 476.199 632.229 476.23 632.229 476.23Z" fill="#263238"/>
<path d="M632.229 491.512H630.603H625.818L607.393 491.59L539.654 491.714L316.168 491.838L92.6364 491.714L24.8352 491.667L6.42556 491.59L24.8352 491.342L92.5745 491.218L316.107 491.11L539.592 491.218L607.331 491.342L625.756 491.419H630.541C631.687 491.481 632.229 491.512 632.229 491.512Z" fill="#263238"/>
<path d="M518.333 514.196C518.101 514.196 517.931 497.52 517.931 477.036C517.931 456.551 518.101 439.876 518.333 439.876C518.566 439.876 518.736 456.536 518.736 477.036C518.736 497.536 518.55 514.196 518.333 514.196Z" fill="#263238"/>
<path d="M550.833 368.033H106.866V438.885H550.833V368.033Z" fill="#455A64"/>
<path d="M589.479 368.451H468.663V438.482H589.479V368.451Z" fill="#455A64"/>
<path d="M589.479 378.036H480.028V428.356H589.479V378.036Z" fill="#F5F5F5"/>
<path opacity="0.3" d="M589.479 368.451H468.663V438.482H589.479V368.451Z" fill="black"/>
<path d="M436.179 423.355C436.179 423.355 436.179 422.674 436.179 421.389C436.179 420.104 436.179 418.199 436.179 415.706C436.179 410.69 436.179 403.32 436.071 393.72L436.241 393.89L134.194 394.123L134.596 393.72V423.355L134.194 422.952L348.668 423.123L412.815 423.231H430.187H434.708C435.73 423.231 436.257 423.231 436.257 423.231H434.708H430.249H412.954L348.916 423.34L134.147 423.525H133.745V393.317H134.163L436.21 393.55H436.381V393.72C436.381 403.351 436.381 410.752 436.288 415.799C436.288 418.276 436.288 420.165 436.288 421.451C436.288 422.736 436.179 423.355 436.179 423.355Z" fill="#263238"/>
<path d="M468.818 438.42C468.586 438.42 468.416 422.55 468.416 402.964C468.416 383.377 468.586 367.507 468.818 367.507C469.05 367.507 469.221 383.377 469.221 402.964C469.221 422.55 469.035 438.42 468.818 438.42Z" fill="#263238"/>
<path d="M523.489 285.337H79.5221V340.783H523.489V285.337Z" fill="#BADCC8"/>
<path d="M425.465 329.852C425.447 329.64 425.447 329.428 425.465 329.217C425.465 328.737 425.465 328.164 425.465 327.436C425.465 325.888 425.465 323.627 425.372 320.871C425.372 315.22 425.264 307.37 425.186 298.142L425.558 298.513H404.532L404.934 298.111V306.859C404.934 309.708 404.934 312.479 404.934 315.143C404.934 320.484 404.934 325.408 404.934 329.79L404.609 329.465L419.659 329.743H423.917C424.434 329.739 424.951 329.764 425.465 329.821C424.991 329.849 424.515 329.849 424.041 329.821L419.86 329.914L404.377 330.084H404.176V329.759C404.176 325.377 404.176 320.469 404.176 315.112C404.176 312.448 404.176 309.677 404.176 306.828V298.08L404.578 297.677H425.604H425.852V298.049C425.775 307.339 425.713 315.313 425.666 321.026C425.666 323.736 425.589 325.919 425.558 327.514C425.558 328.195 425.558 328.752 425.558 329.201C425.559 329.422 425.528 329.641 425.465 329.852Z" fill="#263238"/>
<path d="M523.489 294.023H455.007V331.524H523.489V294.023Z" fill="white"/>
<path opacity="0.3" d="M523.474 285.337H445.98V340.783H523.474V285.337Z" fill="black"/>
<path d="M445.655 340.458C445.423 340.458 445.253 328.226 445.253 313.13C445.253 298.034 445.423 285.802 445.655 285.802C445.888 285.802 446.058 298.034 446.058 313.13C446.058 328.226 445.872 340.458 445.655 340.458Z" fill="#263238"/>
<path d="M524.001 302.895C524.001 303.112 508.44 303.298 489.241 303.298C470.041 303.298 454.481 303.112 454.481 302.895C454.481 302.679 470.041 302.493 489.241 302.493C508.44 302.493 524.001 302.663 524.001 302.895Z" fill="#263238"/>
<path d="M524.001 312.712C524.001 312.944 508.44 313.114 489.241 313.114C470.041 313.114 454.481 312.944 454.481 312.712C454.481 312.479 470.041 312.309 489.241 312.309C508.44 312.309 524.001 312.541 524.001 312.712Z" fill="#263238"/>
<path d="M524.001 322.776C524.001 322.992 508.44 323.178 489.241 323.178C470.041 323.178 454.481 322.992 454.481 322.776C454.481 322.559 470.041 322.373 489.241 322.373C508.44 322.373 524.001 322.543 524.001 322.776Z" fill="#263238"/>
<path d="M599.667 340.783H155.7V368.142H599.667V340.783Z" fill="#BADCC8"/>
<path d="M599.652 344.22H500.404V364.937H599.652V344.22Z" fill="#E0E0E0"/>
<path opacity="0.3" d="M599.652 340.783H494.799V368.142H599.652V340.783Z" fill="black"/>
<path d="M494.799 368.142C494.412 363.766 494.288 359.371 494.427 354.981C494.306 350.589 494.456 346.194 494.876 341.82C495.263 346.196 495.382 350.591 495.233 354.981C495.353 359.372 495.209 363.767 494.799 368.142Z" fill="#263238"/>
<path d="M454.992 351.327H187.611V357.861H454.992V351.327Z" fill="#E0E0E0"/>
<path d="M484.007 367.925C484.007 368.157 410.431 368.328 319.699 368.328C228.967 368.328 155.375 368.157 155.375 367.925C155.375 367.693 228.936 367.523 319.699 367.523C410.462 367.523 484.007 367.708 484.007 367.925Z" fill="#263238"/>
<path d="M495.898 368.064C495.898 368.281 422.322 368.467 331.59 368.467C240.858 368.467 167.281 368.281 167.281 368.064C167.281 367.847 240.842 367.662 331.605 367.662C422.368 367.662 495.898 367.832 495.898 368.064Z" fill="#263238"/>
<path d="M599.667 340.581C599.667 340.814 502.85 340.984 383.474 340.984C264.098 340.984 167.281 340.814 167.281 340.581C167.281 340.349 264.067 340.179 383.49 340.179C502.912 340.179 599.667 340.365 599.667 340.581Z" fill="#263238"/>
<path d="M552.691 285.136L549.95 321.522C549.95 321.522 584.014 336.571 584.199 343.338L517.203 340.473L519.278 283.603L552.691 285.136Z" fill="#263238"/>
<path d="M529.342 317.558C528.673 317.762 528.099 318.199 527.724 318.789C527.349 319.38 527.198 320.086 527.299 320.778C527.423 321.455 527.807 322.057 528.367 322.455C528.928 322.854 529.622 323.019 530.302 322.915C531.006 322.695 531.607 322.23 531.999 321.606C532.39 320.982 532.546 320.238 532.439 319.509C532.343 319.164 532.179 318.843 531.958 318.562C531.736 318.281 531.462 318.047 531.149 317.872C530.837 317.698 530.493 317.588 530.138 317.547C529.783 317.506 529.423 317.536 529.079 317.635" fill="#E0E0E0"/>
<path d="M517.203 340.473L517.621 334.744L581.769 339.637C581.769 339.637 584.695 341.185 584.277 343.338L517.203 340.473Z" fill="#455A64"/>
<path d="M551.05 321.196C551.05 321.553 549.378 321.63 547.721 322.745C546.064 323.86 545.151 325.191 544.856 325.052C544.562 324.912 545.12 322.915 547.148 321.692C549.176 320.469 551.127 320.887 551.05 321.196Z" fill="white"/>
<path d="M557.955 324.572C557.955 324.912 556.577 325.439 555.401 326.848C554.224 328.257 553.852 329.79 553.512 329.759C553.171 329.728 553.063 327.777 554.549 326.043C556.035 324.309 557.955 324.247 557.955 324.572Z" fill="white"/>
<path d="M561.578 333.629C561.284 333.629 560.897 331.942 561.811 330.084C562.724 328.226 564.303 327.544 564.427 327.839C564.551 328.133 563.56 329.093 562.879 330.641C562.198 332.189 561.903 333.598 561.578 333.629Z" fill="white"/>
<path d="M550.802 312.836C550.647 313.145 549.176 312.603 547.318 312.665C545.46 312.727 543.99 313.269 543.835 312.959C543.68 312.65 545.104 311.411 547.303 311.411C549.502 311.411 550.973 312.572 550.802 312.836Z" fill="white"/>
<path d="M542.488 164.986C562.616 161.502 585.314 181.228 581.769 206.791C578.672 229.164 558.699 310.916 558.699 310.916L526.339 295.215L535.474 193.769L542.488 164.986Z" fill="#263238"/>
<path d="M457.422 283.603L521.337 245.576L522.452 227.306L457.422 283.603Z" fill="#455A64"/>
<path d="M386.633 223.389L383.227 235.62C378.055 254.2 381.322 270.396 393.337 285.539H393.724L453.784 286.003C470.955 278.509 520.238 232.013 520.238 232.013L514.834 312.526L558.342 315.87C558.342 315.87 564.536 227.91 567.911 207.116C571.286 186.322 559.581 164.862 542.131 166.364C524.682 167.866 387.577 219.998 386.633 223.389Z" fill="#263238"/>
<path d="M542.131 166.333C542.265 166.313 542.4 166.313 542.534 166.333H543.695C545.206 166.389 546.704 166.633 548.154 167.06C553.438 168.893 558.057 172.256 561.423 176.722C563.85 179.707 565.717 183.106 566.936 186.755C568.287 190.947 569.027 195.312 569.134 199.715C569.118 204.554 568.818 209.388 568.236 214.192C567.756 219.193 567.261 224.364 566.688 229.675C564.505 250.825 562.523 269.931 561.067 283.866C560.402 290.756 559.875 296.361 559.519 300.31C559.333 302.198 559.194 303.7 559.086 304.784C559.086 305.249 559.039 305.636 558.946 305.945C558.962 306.074 558.962 306.204 558.946 306.333C558.929 306.199 558.929 306.064 558.946 305.93C558.946 305.62 558.946 305.233 558.946 304.769C558.946 303.685 559.101 302.183 559.225 300.279C559.504 296.392 559.937 290.756 560.556 283.82C561.764 269.885 563.792 250.748 565.929 229.628C566.44 224.333 566.951 219.162 567.477 214.145C568.058 209.377 568.369 204.58 568.406 199.777C568.322 195.441 567.618 191.139 566.316 187.003C565.156 183.409 563.351 180.056 560.99 177.109C557.725 172.682 553.236 169.307 548.077 167.401C546.157 166.76 544.154 166.401 542.131 166.333Z" fill="#455A64"/>
<path d="M534.142 212.566C534.312 212.752 530.054 216.638 525.998 222.429C521.941 228.219 519.681 233.515 519.448 233.406C519.733 232.173 520.176 230.981 520.764 229.861C522.076 227.096 523.63 224.454 525.409 221.964C527.162 219.469 529.136 217.137 531.309 214.997C532.14 214.063 533.093 213.245 534.142 212.566Z" fill="#455A64"/>
<path d="M542.921 42.606C544.509 43.3861 546.332 43.5455 548.031 43.0532C549.731 42.5608 551.186 41.4521 552.111 39.9438C553.037 38.4356 553.366 36.6363 553.035 34.8979C552.705 33.1596 551.737 31.6072 550.322 30.5445C551.725 29.8577 552.874 28.7449 553.606 27.3652C554.337 25.9856 554.614 24.4098 554.396 22.8635C554.178 21.3171 553.476 19.8794 552.391 18.7561C551.306 17.6327 549.894 16.8814 548.356 16.6096C548.799 15.1433 548.856 13.5871 548.52 12.0926C548.183 10.598 547.466 9.21593 546.437 8.08098C545.408 6.94603 544.103 6.09685 542.648 5.61612C541.194 5.13539 539.639 5.03949 538.137 5.33775C536.972 3.44272 535.206 1.99225 533.121 1.21772C531.036 0.443183 528.752 0.389197 526.633 1.06436C525.315 0.305883 523.789 -0.00824887 522.279 0.16848C520.769 0.34521 519.357 1.0034 518.25 2.04561C517.144 3.08781 516.402 4.45863 516.136 5.95509C515.869 7.45154 516.091 8.99408 516.77 10.3543" fill="#263238"/>
<path d="M522.87 7.19569L524.419 7.72212C531.563 10.2502 537.495 15.3741 541.035 22.0753C544.575 28.7766 545.464 36.5645 543.525 43.8911C539.809 58.0428 535.52 73.6344 532.826 81.0509C527.267 96.2865 511.149 93.2982 511.149 93.2982L505.993 112.126L469.283 97.9431L489.411 30.1574C493.622 13.7296 506.644 2.55071 522.87 7.19569Z" fill="#AE7461"/>
<path d="M511.304 93.2518C504.199 90.766 497.959 86.2888 493.328 80.3542C493.328 80.3542 494.226 93.6543 509.973 97.6335L511.304 93.2518Z" fill="#6F4439"/>
<path d="M532.779 58.1357C532.581 58.7047 532.171 59.1753 531.635 59.4493C531.098 59.7234 530.477 59.7797 529.9 59.6066C529.615 59.528 529.349 59.3937 529.116 59.2114C528.884 59.0291 528.69 58.8024 528.546 58.5446C528.402 58.2867 528.31 58.0028 528.277 57.7094C528.244 57.4159 528.269 57.1187 528.351 56.8351C528.549 56.2666 528.96 55.7971 529.497 55.5255C530.034 55.254 530.656 55.2017 531.231 55.3796C531.515 55.4564 531.781 55.5891 532.014 55.7699C532.246 55.9507 532.44 56.176 532.584 56.4326C532.728 56.6892 532.82 56.972 532.853 57.2644C532.887 57.5569 532.862 57.853 532.779 58.1357Z" fill="#263238"/>
<path d="M537.641 50.2238C537.27 50.4095 536.093 48.598 533.693 47.7929C531.293 46.9877 529.218 47.5452 529.048 47.1581C528.878 46.771 529.42 46.5697 530.364 46.291C531.634 45.9231 532.987 45.961 534.235 46.3994C535.458 46.833 536.514 47.64 537.254 48.7064C537.765 49.496 537.827 50.1463 537.641 50.2238Z" fill="#263238"/>
<path d="M513.286 52.4068C513.088 52.9753 512.677 53.4448 512.14 53.7163C511.603 53.9878 510.981 54.0401 510.406 53.8622C510.122 53.7855 509.856 53.6528 509.624 53.472C509.392 53.2912 509.198 53.0659 509.054 52.8092C508.909 52.5526 508.818 52.2699 508.784 51.9774C508.751 51.685 508.776 51.3888 508.858 51.1062C509.056 50.5372 509.466 50.0666 510.003 49.7925C510.539 49.5185 511.161 49.4622 511.738 49.6353C512.024 49.7119 512.291 49.8451 512.525 50.027C512.758 50.2088 512.953 50.4356 513.097 50.694C513.242 50.9524 513.333 51.2371 513.365 51.5313C513.398 51.8255 513.371 52.1232 513.286 52.4068Z" fill="#263238"/>
<path d="M514.385 42.5441C514.014 42.7454 512.837 40.9958 510.437 40.1132C508.037 39.2307 505.962 39.8655 505.792 39.4939C505.622 39.1223 506.164 38.9055 507.108 38.6268C508.372 38.2755 509.713 38.3242 510.948 38.7662C512.167 39.2003 513.221 40.0007 513.967 41.0577C514.509 41.8628 514.571 42.4667 514.385 42.5441Z" fill="#263238"/>
<path d="M516.801 62.9665C518.174 63.021 519.536 63.2393 520.857 63.6167C521.492 63.7716 522.096 63.849 522.406 63.4774C522.672 62.8744 522.747 62.2046 522.623 61.5575C522.623 59.9162 522.514 58.1821 522.452 56.3706C522.266 49.0005 522.359 43.024 522.669 43.0085C522.979 42.993 523.35 48.985 523.536 56.3551C523.536 58.1666 523.536 59.9008 523.613 61.542C523.736 62.3971 523.555 63.268 523.102 64.0038C522.944 64.1906 522.744 64.3371 522.517 64.4313C522.291 64.5255 522.046 64.5647 521.802 64.5458C521.439 64.5142 521.08 64.4415 520.734 64.329C519.369 64.0472 518.047 63.5892 516.801 62.9665Z" fill="#263238"/>
<path d="M519.603 34.2295C519.092 34.7095 517.296 33.3625 514.85 32.4025C512.403 31.4425 510.205 31.1329 510.205 30.4361C510.205 30.111 510.84 29.7239 511.893 29.5691C513.247 29.3889 514.625 29.5705 515.887 30.0955C517.15 30.5736 518.258 31.3873 519.092 32.4489C519.681 33.285 519.835 34.0127 519.603 34.2295Z" fill="#263238"/>
<path d="M541.156 40.5622C540.475 40.9338 538.741 39.6951 536.403 38.8436C534.065 37.992 531.974 37.6978 531.758 36.9856C531.665 36.6449 532.16 36.2114 533.198 36.0101C534.609 35.7967 536.052 35.9624 537.378 36.4901C538.722 36.9687 539.91 37.8036 540.815 38.9055C541.388 39.7416 541.466 40.3919 541.156 40.5622Z" fill="#263238"/>
<path d="M544.547 36.3662C544.547 36.3662 543.881 25.3731 540.041 21.5177C535.396 16.8727 530.844 22.1371 526.106 18.7772C521.368 15.4173 516.816 11.0356 509.973 13.1568C502.432 15.5722 504.12 19.7217 501.364 26.3795C490.216 53.3668 482.474 59.3743 485.587 45.9194C485.927 44.4485 482.382 41.9247 483.899 35.7314C485.881 27.6801 488.9 18.1424 492.57 13.2187C495.666 9.08468 499.444 6.80863 505.436 4.93515C514.912 1.96236 525.27 5.46158 532.021 8.63565C538.772 11.8097 549.393 24.5989 544.547 36.3662Z" fill="#263238"/>
<path d="M486.639 45.8419C486.82 45.2728 486.883 44.6728 486.824 44.0786C486.764 43.4845 486.584 42.9087 486.294 42.3867C486.004 41.8648 485.61 41.4075 485.137 41.0432C484.664 40.6788 484.122 40.415 483.543 40.2679C480.586 39.5402 476.854 40.0512 474.965 45.9968C471.636 56.5718 482.939 57.7485 483.047 57.4544C483.156 57.1602 485.292 50.2856 486.639 45.8419Z" fill="#AE7461"/>
<path d="M482.026 52.7475C482.026 52.7475 481.809 52.7474 481.453 52.8558C480.953 52.909 480.453 52.7645 480.059 52.4533C479.516 51.8032 479.156 51.0205 479.014 50.1854C478.873 49.3503 478.955 48.4926 479.254 47.6999C479.503 46.78 479.964 45.9315 480.601 45.2226C480.804 44.9243 481.076 44.6798 481.394 44.5099C481.713 44.34 482.067 44.2498 482.428 44.2471C482.658 44.2593 482.876 44.3509 483.045 44.5062C483.215 44.6616 483.325 44.871 483.357 45.0987C483.357 45.4394 483.264 45.6252 483.357 45.6561C483.45 45.6871 483.651 45.5632 483.698 45.0987C483.728 44.815 483.657 44.5298 483.496 44.2936C483.276 43.9835 482.942 43.7723 482.567 43.7052C482.105 43.655 481.638 43.7239 481.209 43.9055C480.781 44.0871 480.406 44.3753 480.121 44.7426C479.389 45.5163 478.858 46.4571 478.573 47.4831C477.969 49.6353 478.418 51.9733 479.811 52.9023C480.07 53.0766 480.364 53.1895 480.673 53.2324C480.982 53.2754 481.296 53.2472 481.592 53.15C481.933 52.9952 482.057 52.7784 482.026 52.7475Z" fill="#6F4439"/>
<path d="M493.978 25.6518C494.89 27.1452 496.163 28.3856 497.679 29.2594C498.452 29.6699 499.347 29.7879 500.201 29.5916C501.054 29.3954 501.808 28.8981 502.324 28.1911C502.711 27.4943 502.819 26.6427 503.501 26.1937C504.182 25.7447 505.281 26.3021 506.133 26.7046C509.059 28.0981 513.781 25.9924 515.593 23.2983C515.796 24.0038 516.259 24.6065 516.887 24.9855C517.516 25.3645 518.265 25.4919 518.984 25.3421C520.152 25.0772 521.267 24.6165 522.282 23.9796C522.893 23.5611 523.596 23.2949 524.331 23.2033C525.067 23.1117 525.813 23.1974 526.509 23.4531C527.236 23.8247 527.794 24.537 528.599 24.7383C530.023 25.1099 531.247 23.7319 531.943 22.4467C532.64 21.1616 533.337 19.6133 534.761 19.3501C536.124 19.2927 537.463 19.7207 538.539 20.5578C539.731 21.1926 541.481 21.4558 542.224 20.341C542.399 20.0305 542.507 19.687 542.541 19.3325C542.576 18.978 542.536 18.6202 542.426 18.2817C542.021 16.7184 541.101 15.3374 539.814 14.3623C538.527 13.3871 536.949 12.8751 535.334 12.909C535.441 10.9831 534.973 9.0688 533.989 7.40962C533.006 5.75043 531.551 4.42134 529.809 3.59139C528.068 2.76144 526.119 2.46813 524.211 2.74877C522.303 3.02941 520.521 3.87132 519.092 5.16742C518.336 3.77089 517.254 2.57756 515.938 1.68889C514.622 0.800225 513.111 0.242494 511.533 0.0631203C509.955 -0.116253 508.357 0.0880365 506.875 0.658615C505.393 1.22919 504.071 2.14919 503.021 3.34039C501.856 2.55649 500.488 2.13153 499.084 2.11822C497.681 2.1049 496.305 2.50381 495.126 3.26549C493.947 4.02716 493.018 5.11809 492.453 6.40299C491.889 7.68789 491.714 9.11024 491.95 10.4937C490.811 10.6357 489.727 11.0638 488.799 11.7379C487.87 12.4121 487.127 13.3103 486.639 14.349C485.834 16.5012 487.197 19.3965 489.473 19.5669C488.744 20.2705 488.313 21.2263 488.267 22.2382C488.221 23.25 488.564 24.2411 489.225 25.0079C489.887 25.7747 490.817 26.259 491.825 26.3615C492.833 26.464 493.842 26.1768 494.644 25.5589" fill="#263238"/>
<path d="M535.009 16.1915C534.994 16.2623 534.968 16.3302 534.932 16.3928C534.857 16.5744 534.769 16.7503 534.669 16.9192C534.28 17.5806 533.782 18.172 533.198 18.6688C532.284 19.4615 531.196 20.0289 530.024 20.3256C528.486 20.7356 526.856 20.6378 525.379 20.0468L525.642 19.8765C525.635 20.4039 525.523 20.9246 525.313 21.4083C525.103 21.8921 524.799 22.3293 524.419 22.6945C523.623 23.4713 522.715 24.1237 521.725 24.6299C521.242 24.9539 520.722 25.219 520.176 25.4195C519.225 25.6664 518.216 25.5649 517.333 25.1333C516.45 24.7016 515.751 23.9684 515.361 23.0661H515.794C515.269 24.1027 514.531 25.0174 513.63 25.7508C512.728 26.4843 511.683 27.0203 510.561 27.324C509.319 27.7339 507.979 27.7339 506.737 27.324C505.602 26.8586 504.555 26.2042 503.64 25.3886H503.95C502.966 26.4666 501.725 27.2765 500.342 27.742C499.699 27.9917 499.008 28.0949 498.319 28.044C497.631 27.9931 496.963 27.7894 496.363 27.4479C495.347 26.8281 494.535 25.9248 494.026 24.8491C493.517 23.7734 493.333 22.5724 493.499 21.3939L493.7 21.5797C492.394 21.7851 491.058 21.5277 489.922 20.852C489.072 20.3624 488.35 19.6778 487.816 18.8547C487.48 18.3372 487.234 17.7666 487.088 17.167C487.061 16.9562 487.061 16.7429 487.088 16.5322C487.282 17.3189 487.606 18.0673 488.048 18.7463C488.593 19.5225 489.308 20.1635 490.139 20.6197C491.225 21.2294 492.486 21.4531 493.715 21.2545H493.948V21.4868C493.809 22.5912 493.992 23.7122 494.476 24.7148C494.959 25.7174 495.722 26.559 496.673 27.1382C497.224 27.4456 497.837 27.6248 498.467 27.6623C499.097 27.6998 499.727 27.5948 500.311 27.355C501.616 26.9017 502.787 26.13 503.717 25.1099L503.872 24.955L504.043 25.0944C504.929 25.8705 505.939 26.4933 507.031 26.9369C508.177 27.3171 509.415 27.3171 510.561 26.9369C511.619 26.6511 512.605 26.1465 513.456 25.4558C514.307 24.765 515.003 23.9034 515.5 22.9267L515.748 22.4622L515.934 22.9577C516.164 23.4935 516.521 23.9651 516.974 24.332C517.427 24.6989 517.963 24.9499 518.535 25.0634C519.079 25.1954 519.647 25.1954 520.192 25.0634C520.733 24.8732 521.253 24.624 521.74 24.3202C522.7 23.8409 523.582 23.2198 524.357 22.4777C524.706 22.1516 524.988 21.7591 525.185 21.3232C525.381 20.8872 525.489 20.4165 525.502 19.9385V19.6598L525.766 19.7682C527.186 20.3643 528.762 20.4838 530.256 20.1088C531.39 19.8286 532.448 19.2997 533.352 18.5605C534.027 17.8641 534.587 17.0644 535.009 16.1915Z" fill="#455A64"/>
<path d="M514.107 70.77C514.107 70.3675 511.397 70.1043 509.648 67.5495C507.898 64.9948 508.471 62.0684 508.099 62.022C507.728 61.9755 507.495 62.6258 507.356 63.8645C507.178 65.4995 507.584 67.1449 508.502 68.5095C509.378 69.8095 510.729 70.7153 512.264 71.0333C513.333 71.1726 514.107 70.9713 514.107 70.77Z" fill="#263238"/>
<path d="M474.594 81.02C474.594 81.02 448.272 79.6574 436.536 94.0724C426.208 106.784 380.951 218.852 380.951 237.138C380.951 255.424 421.61 239.507 437.403 231.192C453.196 222.878 497.23 182.962 497.23 182.962C497.23 182.962 497.973 178.162 498.778 174.013C499.584 169.863 507.016 141.126 507.883 131C508.548 123.15 507.201 106.056 507.201 106.056C491.393 103.115 474.594 81.02 474.594 81.02Z" fill="#BADCC8"/>
<path d="M619.966 140.398L619.796 139.423L618.541 139.733L602.315 108.24L527.933 140.305L551.328 170.606L619.966 140.398Z" fill="#BADCC8"/>
<g opacity="0.3">
<path d="M580.096 151.856L568.484 131.108L592.39 120.533L604.684 141.947L580.096 151.856Z" fill="white"/>
</g>
<path d="M510.36 161.239L523.846 154.302C523.846 154.302 531.711 136.109 536.712 132.858C541.713 129.606 549.548 130.984 549.548 130.984L542.41 136.311C542.41 136.311 537.657 142.752 542.224 143.774C546.792 144.796 570.605 133.059 573.934 133.4C577.263 133.741 573.779 139.733 573.779 139.733C573.779 139.733 578.254 141.033 574.306 146.53C574.45 147.827 574.258 149.139 573.748 150.34C573.238 151.542 572.428 152.591 571.395 153.389C562.476 159.814 544.253 166.906 542.348 168.02C539.685 169.569 517.977 181.228 517.977 181.228L510.36 161.239Z" fill="#AE7461"/>
<path d="M573.779 139.733C573.059 140.462 572.241 141.087 571.348 141.591C569.8 142.659 567.586 144.068 565.062 145.477C562.908 146.695 560.679 147.776 558.389 148.713C557.464 149.163 556.478 149.476 555.463 149.642C555.463 149.41 559.674 147.598 564.752 144.78C567.669 142.938 570.682 141.253 573.779 139.733Z" fill="#6F4439"/>
<path d="M574.94 145.601C572.669 148.075 570.013 150.167 567.075 151.794C564.269 153.633 561.192 155.017 557.955 155.897C557.862 155.665 561.981 153.946 566.657 151.113C571.333 148.279 574.785 145.492 574.94 145.601Z" fill="#6F4439"/>
<path d="M603.383 110.33L605.892 109.246L614.036 124.543L615.553 124.249L616.869 125.349L619.796 139.423L618.541 139.733L603.383 110.33Z" fill="#E0E0E0"/>
<path d="M619.393 138.834C616.759 134.152 614.361 129.341 612.208 124.419C609.806 119.614 607.651 114.689 605.752 109.664C608.386 114.346 610.783 119.157 612.936 124.079C616.761 132.13 619.656 138.742 619.393 138.834Z" fill="#263238"/>
<path d="M517.652 157.414L479.254 171.04C479.254 171.04 479.486 119.589 476.42 100.761C473.2 80.9891 433.16 79.1775 432.479 112.436C432.479 115.764 430.249 172.371 437.635 194.327C445.02 216.282 455.936 219.951 471.698 214.966C487.46 209.98 531.293 178.797 531.293 178.797L517.652 157.414Z" fill="#BADCC8"/>
<path d="M517.653 157.414C517.653 157.414 517.962 157.848 518.566 158.761L521.214 162.818L531.479 178.688L531.588 178.843L531.433 178.952C524.651 183.782 516.135 189.682 506.025 196.262C500.977 199.544 495.527 202.997 489.628 206.45C486.686 208.169 483.62 209.903 480.415 211.528C478.867 212.395 477.148 213.077 475.476 213.897C473.745 214.628 471.972 215.253 470.165 215.771C466.44 216.922 462.539 217.399 458.646 217.18C454.544 216.855 450.667 215.177 447.622 212.411C444.563 209.519 442.105 206.052 440.391 202.208C438.553 198.309 437.091 194.245 436.025 190.069C434.166 181.324 433.011 172.444 432.572 163.515C431.999 154.411 431.767 145.074 431.736 135.645C431.736 127.454 431.829 119.387 432.138 111.445C432.267 107.458 433.155 103.532 434.755 99.8786C436.361 96.2837 438.861 93.1601 442.017 90.8054C445.116 88.622 448.668 87.1676 452.408 86.551C456.149 85.9343 459.98 86.1713 463.616 87.2442C467.155 88.2232 470.364 90.1381 472.906 92.7872C474.103 94.1185 475.085 95.6282 475.817 97.2619C476.455 98.8909 476.866 100.6 477.04 102.34C477.953 109.107 478.325 115.687 478.588 122.004C478.851 128.321 479.084 134.391 479.208 140.151C479.471 151.701 479.517 162.09 479.486 171.117L479.161 170.885L507.573 160.945L515.067 158.343L516.987 157.693L517.637 157.492L516.971 157.755L515.036 158.467L507.526 161.192L479.316 171.349L479.006 171.458V171.117C479.006 162.106 478.898 151.717 478.588 140.151C478.449 134.391 478.248 128.337 477.922 122.02C477.597 115.702 477.195 109.153 476.266 102.433C476.089 100.751 475.688 99.1007 475.074 97.5251C474.379 95.9692 473.444 94.5323 472.302 93.2672C469.856 90.7337 466.777 88.9002 463.384 87.9564C459.861 86.9249 456.15 86.701 452.529 87.3015C448.907 87.902 445.467 89.3113 442.466 91.4247C439.422 93.6994 437.012 96.7167 435.467 100.188C433.914 103.751 433.047 107.575 432.913 111.46C432.618 119.372 432.51 127.454 432.526 135.629C432.526 145.105 432.789 154.426 433.362 163.499C433.793 172.38 434.927 181.212 436.752 189.914C437.814 194.038 439.255 198.055 441.057 201.913C442.72 205.672 445.115 209.061 448.102 211.885C451.024 214.556 454.747 216.189 458.692 216.53C462.5 216.743 466.316 216.282 469.964 215.167C471.737 214.658 473.479 214.048 475.182 213.34C476.854 212.55 478.526 211.792 480.106 211.002C483.295 209.454 486.299 207.673 489.303 205.954C495.186 202.533 500.652 199.111 505.715 195.844C515.841 189.325 524.388 183.457 531.2 178.704V178.967C526.834 172.031 523.459 166.689 521.152 163.05C520.021 161.239 519.17 159.861 518.566 158.916L517.653 157.414Z" fill="#263238"/>
<path d="M468.245 190.549C468.418 189.427 468.74 188.333 469.205 187.297C470.124 184.789 471.226 182.351 472.503 180.005C473.776 177.658 475.264 175.434 476.947 173.362C477.604 172.461 478.392 171.663 479.285 170.993C479.47 171.148 476.188 174.942 473.184 180.392C470.181 185.842 468.493 190.642 468.245 190.549Z" fill="#263238"/>
<path d="M58.9914 424.067C59.2546 424.284 60.3849 423.185 62.088 422.519C63.7912 421.853 65.3705 421.698 65.386 421.358C65.4015 421.017 63.6209 420.537 61.6081 421.358C59.5952 422.178 58.7282 423.897 58.9914 424.067Z" fill="white"/>
<path d="M109.513 457.139C109.281 457.294 107.965 455.158 105.286 454.291C103.62 453.883 101.893 453.788 100.192 454.012C100.192 453.919 100.641 453.501 101.632 453.222C102.94 452.907 104.311 452.967 105.587 453.394C106.863 453.821 107.993 454.598 108.848 455.638C109.467 456.458 109.622 457.093 109.513 457.139Z" fill="white"/>
<path d="M107.222 463.318C105.89 462.799 104.531 462.355 103.15 461.986C101.727 461.895 100.299 461.895 98.8763 461.986C98.7215 461.769 100.672 460.577 103.305 461.011C105.937 461.444 107.423 463.178 107.222 463.318Z" fill="white"/>
</svg>
