<svg width="154" height="118" viewBox="0 0 154 118" fill="none" xmlns="http://www.w3.org/2000/svg">
<circle cx="79" cy="58" r="40" fill="#30CB70"/>
<path d="M79.0032 28C73.7929 27.9996 68.6723 29.3561 64.1455 31.936C59.6188 34.5159 55.842 38.2302 53.187 42.7133C50.5321 47.1963 49.0904 52.2935 49.0041 57.5029C48.9178 62.7124 50.1897 67.8545 52.6947 72.4231L50.2427 81.0769C50.014 81.8655 50.0011 82.701 50.2055 83.4962C50.4098 84.2914 50.8239 85.0172 51.4045 85.5978C51.9851 86.1784 52.7109 86.5925 53.5062 86.7968C54.3015 87.0012 55.137 86.9883 55.9256 86.7596L64.5797 84.3077C68.5903 86.5058 73.0503 87.7578 77.6189 87.9682C82.1875 88.1786 86.7437 87.3418 90.9394 85.5216C95.135 83.7014 98.8589 80.9461 101.827 77.4664C104.794 73.9866 106.927 69.8744 108.062 65.4441C109.197 61.0138 109.303 56.3827 108.374 51.9048C107.445 47.4269 105.504 43.2207 102.7 39.6077C99.8966 35.9946 96.3038 33.0705 92.1966 31.0587C88.0894 29.0468 83.5767 28.0006 79.0032 28ZM85.9554 76.4615H85.9265C79.1912 76.4539 72.7344 73.773 67.9746 69.0079C63.2147 64.2428 60.5411 57.7831 60.5411 51.0481C60.5487 48.2989 61.6462 45.6649 63.593 43.7237C65.5397 41.7824 68.1768 40.6923 70.926 40.6923C71.6818 40.694 72.4237 40.8948 73.077 41.2747C73.7304 41.6545 74.272 42.1999 74.6473 42.8558L78.0224 48.7692C78.43 49.4774 78.6397 50.2822 78.6296 51.0992C78.6194 51.9163 78.3898 52.7156 77.9647 53.4135L75.9166 56.8462C76.9464 58.5973 78.4059 60.0567 80.1571 61.0865L83.5899 59.0385C84.2878 58.6134 85.0871 58.3838 85.9042 58.3736C86.7213 58.3635 87.5261 58.5732 88.2343 58.9808L94.1479 62.3558C94.8039 62.7311 95.3492 63.2727 95.7291 63.926C96.1089 64.5793 96.3098 65.3212 96.3115 66.0769C96.3115 68.8261 95.2213 71.4631 93.28 73.4098C91.3387 75.3564 88.7046 76.4539 85.9554 76.4615Z" fill="white"/>
</svg>
