<svg width="193" height="36" viewBox="0 0 193 36" fill="none" xmlns="http://www.w3.org/2000/svg">
<path d="M15.125 7.25V30H10.4531V7.25H15.125ZM22.125 7.25V10.9219H3.5625V7.25H22.125ZM28.9062 6V30H24.4062V6H28.9062ZM28.2656 20.9531H27.0312C27.0417 19.776 27.1979 18.6927 27.5 17.7031C27.8021 16.7031 28.2344 15.8385 28.7969 15.1094C29.3594 14.3698 30.0312 13.7969 30.8125 13.3906C31.6042 12.9844 32.4792 12.7812 33.4375 12.7812C34.2708 12.7812 35.026 12.901 35.7031 13.1406C36.3906 13.3698 36.9792 13.7448 37.4688 14.2656C37.9688 14.776 38.3542 15.4479 38.625 16.2812C38.8958 17.1146 39.0312 18.125 39.0312 19.3125V30H34.5V19.2812C34.5 18.5312 34.3906 17.9427 34.1719 17.5156C33.9635 17.0781 33.6562 16.7708 33.25 16.5938C32.8542 16.4062 32.3646 16.3125 31.7812 16.3125C31.1354 16.3125 30.5833 16.4323 30.125 16.6719C29.6771 16.9115 29.3177 17.2448 29.0469 17.6719C28.776 18.0885 28.5781 18.5781 28.4531 19.1406C28.3281 19.7031 28.2656 20.3073 28.2656 20.9531ZM50.2344 30.3125C48.9219 30.3125 47.7448 30.1042 46.7031 29.6875C45.6615 29.2604 44.776 28.6719 44.0469 27.9219C43.3281 27.1719 42.776 26.3021 42.3906 25.3125C42.0052 24.3125 41.8125 23.25 41.8125 22.125V21.5C41.8125 20.2188 41.9948 19.0469 42.3594 17.9844C42.724 16.9219 43.2448 16 43.9219 15.2188C44.6094 14.4375 45.4427 13.8385 46.4219 13.4219C47.401 12.9948 48.5052 12.7812 49.7344 12.7812C50.9323 12.7812 51.9948 12.9792 52.9219 13.375C53.849 13.7708 54.625 14.3333 55.25 15.0625C55.8854 15.7917 56.3646 16.6667 56.6875 17.6875C57.0104 18.6979 57.1719 19.8229 57.1719 21.0625V22.9375H43.7344V19.9375H52.75V19.5938C52.75 18.9688 52.6354 18.4115 52.4062 17.9219C52.1875 17.4219 51.8542 17.026 51.4062 16.7344C50.9583 16.4427 50.3854 16.2969 49.6875 16.2969C49.0938 16.2969 48.5833 16.4271 48.1562 16.6875C47.7292 16.9479 47.3802 17.3125 47.1094 17.7812C46.849 18.25 46.651 18.8021 46.5156 19.4375C46.3906 20.0625 46.3281 20.75 46.3281 21.5V22.125C46.3281 22.8021 46.4219 23.4271 46.6094 24C46.8073 24.5729 47.0833 25.0677 47.4375 25.4844C47.8021 25.901 48.2396 26.224 48.75 26.4531C49.2708 26.6823 49.8594 26.7969 50.5156 26.7969C51.3281 26.7969 52.0833 26.6406 52.7812 26.3281C53.4896 26.0052 54.099 25.5208 54.6094 24.875L56.7969 27.25C56.4427 27.7604 55.9583 28.25 55.3438 28.7188C54.7396 29.1875 54.0104 29.5729 53.1562 29.875C52.3021 30.1667 51.3281 30.3125 50.2344 30.3125ZM90.8906 21.7188V21.3906C90.8906 20.151 91.0677 19.0104 91.4219 17.9688C91.776 16.9167 92.2917 16.0052 92.9688 15.2344C93.6458 14.4635 94.4792 13.8646 95.4688 13.4375C96.4583 13 97.5938 12.7812 98.875 12.7812C100.156 12.7812 101.297 13 102.297 13.4375C103.297 13.8646 104.135 14.4635 104.812 15.2344C105.5 16.0052 106.021 16.9167 106.375 17.9688C106.729 19.0104 106.906 20.151 106.906 21.3906V21.7188C106.906 22.9479 106.729 24.0885 106.375 25.1406C106.021 26.1823 105.5 27.0938 104.812 27.875C104.135 28.6458 103.302 29.2448 102.312 29.6719C101.323 30.099 100.188 30.3125 98.9062 30.3125C97.625 30.3125 96.4844 30.099 95.4844 29.6719C94.4948 29.2448 93.6562 28.6458 92.9688 27.875C92.2917 27.0938 91.776 26.1823 91.4219 25.1406C91.0677 24.0885 90.8906 22.9479 90.8906 21.7188ZM95.3906 21.3906V21.7188C95.3906 22.4271 95.4531 23.0885 95.5781 23.7031C95.7031 24.3177 95.901 24.8594 96.1719 25.3281C96.4531 25.7865 96.8177 26.1458 97.2656 26.4062C97.7135 26.6667 98.2604 26.7969 98.9062 26.7969C99.5312 26.7969 100.068 26.6667 100.516 26.4062C100.964 26.1458 101.323 25.7865 101.594 25.3281C101.865 24.8594 102.062 24.3177 102.188 23.7031C102.323 23.0885 102.391 22.4271 102.391 21.7188V21.3906C102.391 20.7031 102.323 20.0573 102.188 19.4531C102.062 18.8385 101.859 18.2969 101.578 17.8281C101.307 17.349 100.948 16.974 100.5 16.7031C100.052 16.4323 99.5104 16.2969 98.875 16.2969C98.2396 16.2969 97.6979 16.4323 97.25 16.7031C96.8125 16.974 96.4531 17.349 96.1719 17.8281C95.901 18.2969 95.7031 18.8385 95.5781 19.4531C95.4531 20.0573 95.3906 20.7031 95.3906 21.3906ZM108.953 21.7188V21.3906C108.953 20.151 109.13 19.0104 109.484 17.9688C109.839 16.9167 110.354 16.0052 111.031 15.2344C111.708 14.4635 112.542 13.8646 113.531 13.4375C114.521 13 115.656 12.7812 116.938 12.7812C118.219 12.7812 119.359 13 120.359 13.4375C121.359 13.8646 122.198 14.4635 122.875 15.2344C123.562 16.0052 124.083 16.9167 124.438 17.9688C124.792 19.0104 124.969 20.151 124.969 21.3906V21.7188C124.969 22.9479 124.792 24.0885 124.438 25.1406C124.083 26.1823 123.562 27.0938 122.875 27.875C122.198 28.6458 121.365 29.2448 120.375 29.6719C119.385 30.099 118.25 30.3125 116.969 30.3125C115.688 30.3125 114.547 30.099 113.547 29.6719C112.557 29.2448 111.719 28.6458 111.031 27.875C110.354 27.0938 109.839 26.1823 109.484 25.1406C109.13 24.0885 108.953 22.9479 108.953 21.7188ZM113.453 21.3906V21.7188C113.453 22.4271 113.516 23.0885 113.641 23.7031C113.766 24.3177 113.964 24.8594 114.234 25.3281C114.516 25.7865 114.88 26.1458 115.328 26.4062C115.776 26.6667 116.323 26.7969 116.969 26.7969C117.594 26.7969 118.13 26.6667 118.578 26.4062C119.026 26.1458 119.385 25.7865 119.656 25.3281C119.927 24.8594 120.125 24.3177 120.25 23.7031C120.385 23.0885 120.453 22.4271 120.453 21.7188V21.3906C120.453 20.7031 120.385 20.0573 120.25 19.4531C120.125 18.8385 119.922 18.2969 119.641 17.8281C119.37 17.349 119.01 16.974 118.562 16.7031C118.115 16.4323 117.573 16.2969 116.938 16.2969C116.302 16.2969 115.76 16.4323 115.312 16.7031C114.875 16.974 114.516 17.349 114.234 17.8281C113.964 18.2969 113.766 18.8385 113.641 19.4531C113.516 20.0573 113.453 20.7031 113.453 21.3906ZM132.234 5.98438V30H127.734V5.98438H132.234ZM142.891 13.0938L135.547 21.4688L131.609 25.4531L129.969 22.2031L133.094 18.2344L137.484 13.0938H142.891ZM138.219 30L133.219 22.1875L136.328 19.4688L143.406 30H138.219ZM145.047 27.8281C145.047 27.1615 145.276 26.6042 145.734 26.1562C146.203 25.7083 146.823 25.4844 147.594 25.4844C148.365 25.4844 148.979 25.7083 149.438 26.1562C149.906 26.6042 150.141 27.1615 150.141 27.8281C150.141 28.4948 149.906 29.0521 149.438 29.5C148.979 29.9479 148.365 30.1719 147.594 30.1719C146.823 30.1719 146.203 29.9479 145.734 29.5C145.276 29.0521 145.047 28.4948 145.047 27.8281ZM163.25 21.8906H157.453V18.2344H163.25C164.146 18.2344 164.875 18.0885 165.438 17.7969C166 17.4948 166.411 17.0781 166.672 16.5469C166.932 16.0156 167.062 15.4167 167.062 14.75C167.062 14.0729 166.932 13.4427 166.672 12.8594C166.411 12.276 166 11.8073 165.438 11.4531C164.875 11.099 164.146 10.9219 163.25 10.9219H159.078V30H154.391V7.25H163.25C165.031 7.25 166.557 7.57292 167.828 8.21875C169.109 8.85417 170.089 9.73438 170.766 10.8594C171.443 11.9844 171.781 13.2708 171.781 14.7188C171.781 16.1875 171.443 17.4583 170.766 18.5312C170.089 19.6042 169.109 20.4323 167.828 21.0156C166.557 21.599 165.031 21.8906 163.25 21.8906ZM179.234 5.98438V30H174.734V5.98438H179.234ZM189.891 13.0938L182.547 21.4688L178.609 25.4531L176.969 22.2031L180.094 18.2344L184.484 13.0938H189.891ZM185.219 30L180.219 22.1875L183.328 19.4688L190.406 30H185.219Z" fill="#2F327D"/>
<ellipse cx="74" cy="18.5" rx="17" ry="17.5" fill="#30CB70"/>
<path d="M75.7259 19.1047L71.4012 23.0348L69.2133 20.6738L72.8442 17.3741C73.4841 16.7927 73.9347 16.2353 74.1962 15.7021C74.4506 15.1612 74.5344 14.6417 74.4476 14.1435C74.3615 13.6305 74.1083 13.1428 73.688 12.6803C73.2116 12.1561 72.7261 11.8231 72.2314 11.6815C71.7444 11.5329 71.2263 11.5745 70.6769 11.8063C70.1352 12.0312 69.5406 12.4378 68.893 13.0263L66.4878 15.2121L79.3187 29.331L75.8497 32.4835L60.5493 15.6472L66.4235 10.3089C67.4025 9.41917 68.3616 8.71654 69.3006 8.20098C70.2473 7.67843 71.1622 7.36082 72.0451 7.24816C72.928 7.1355 73.7748 7.23865 74.5854 7.5576C75.3891 7.86886 76.1482 8.41764 76.8627 9.20395C77.4933 9.89775 77.9167 10.6812 78.1331 11.5543C78.3571 12.4204 78.302 13.3432 77.9676 14.3228C77.6409 15.2953 76.9593 16.2877 75.9228 17.3L75.7259 19.1047ZM82.2905 26.6303L77.1679 31.2855L76.0619 27.3502L79.8315 23.9244C80.4405 23.371 80.8502 22.8228 81.0605 22.2798C81.2638 21.729 81.3038 21.2 81.1806 20.6927C81.0573 20.1854 80.7961 19.712 80.3967 19.2726C79.9484 18.7792 79.4748 18.4284 78.9759 18.2202C78.4847 18.005 77.9704 17.9657 77.433 18.1022C76.8885 18.2311 76.3195 18.5652 75.7259 19.1047L72.3841 22.1416L70.2425 19.7385L74.4053 15.9555L76.0543 16.167C77.0656 15.2198 78.0551 14.6514 79.0228 14.4617C79.9912 14.2572 80.8877 14.3222 81.7124 14.6566C82.5448 14.984 83.2692 15.4868 83.8857 16.1652C84.8665 17.2445 85.4581 18.3678 85.6604 19.5352C85.8557 20.6949 85.6666 21.8731 85.0932 23.0698C84.5276 24.2595 83.5933 25.4463 82.2905 26.6303Z" fill="#2F327D"/>
</svg>
